name ./resultDataOpenSim/trcMotMarkerGrf/sub06/grf-05-02.mot
datacolumns 19
datarows 22
range 0.54400000 0.62800000
endheader

                time	     ground_force_vx	     ground_force_vy	     ground_force_vz	     ground_force_px	     ground_force_py	     ground_force_pz	   l_ground_force_vx	   l_ground_force_vy	   l_ground_force_vz	   l_ground_force_px	   l_ground_force_py	   l_ground_force_pz	     ground_torque_x	     ground_torque_y	     ground_torque_z	   l_ground_torque_x	   l_ground_torque_y	   l_ground_torque_z	
          0.54400000	         80.14018870	        530.53607285	        -37.60156169	         -0.81089922	          0.00000000	          0.12883156	          0.00000000	          0.00000000	          0.00000000	          0.00000000	          0.00000000	          0.00000000	          0.00000000	          3.10337078	          0.00000000	          0.00000000	          0.00000000	          0.00000000	
          0.54800000	         83.05597951	        541.59218565	        -39.63513067	         -0.80799113	          0.00000000	          0.12968935	          0.00000000	          0.00000000	          0.00000000	          0.00000000	          0.00000000	          0.00000000	          0.00000000	          2.94274500	          0.00000000	          0.00000000	          0.00000000	          0.00000000	
          0.55200000	         86.16251266	        552.54249745	        -41.45170820	         -0.80518023	          0.00000000	          0.13049210	          0.00000000	          0.00000000	          0.00000000	          0.00000000	          0.00000000	          0.00000000	          0.00000000	          2.80619688	          0.00000000	          0.00000000	          0.00000000	          0.00000000	
          0.55600000	         89.28112642	        563.45458144	        -43.06867425	         -0.80247373	          0.00000000	          0.13122758	          0.00000000	          0.00000000	          0.00000000	          0.00000000	          0.00000000	          0.00000000	          0.00000000	          2.70265211	          0.00000000	          0.00000000	          0.00000000	          0.00000000	
          0.56000000	         92.32233135	        574.43572602	        -44.50147618	         -0.79989037	          0.00000000	          0.13187923	          0.00000000	          0.00000000	          0.00000000	          0.00000000	          0.00000000	          0.00000000	          0.00000000	          2.63670665	          0.00000000	          0.00000000	          0.00000000	          0.00000000	
          0.56400000	         95.32140753	        585.60150338	        -45.76140687	         -0.79746273	          0.00000000	          0.13243347	          0.00000000	          0.00000000	          0.00000000	          0.00000000	          0.00000000	          0.00000000	          0.00000000	          2.60690509	          0.00000000	          0.00000000	          0.00000000	          0.00000000	
          0.56800000	         98.43749655	        597.04158294	        -46.85698400	         -0.79523637	          0.00000000	          0.13288652	          0.00000000	          0.00000000	          0.00000000	          0.00000000	          0.00000000	          0.00000000	          0.00000000	          2.60555432	          0.00000000	          0.00000000	          0.00000000	          0.00000000	
          0.57200000	        101.91791651	        608.79411851	        -47.79579423	         -0.79326179	          0.00000000	          0.13324542	          0.00000000	          0.00000000	          0.00000000	          0.00000000	          0.00000000	          0.00000000	          0.00000000	          2.62012373	          0.00000000	          0.00000000	          0.00000000	          0.00000000	
          0.57600000	        106.03944414	        620.83569250	        -48.58452194	         -0.79158014	          0.00000000	          0.13352358	          0.00000000	          0.00000000	          0.00000000	          0.00000000	          0.00000000	          0.00000000	          0.00000000	          2.63583993	          0.00000000	          0.00000000	          0.00000000	          0.00000000	
          0.58000000	        111.04376119	        633.07858670	        -49.22742346	         -0.79021244	          0.00000000	          0.13373315	          0.00000000	          0.00000000	          0.00000000	          0.00000000	          0.00000000	          0.00000000	          0.00000000	          2.63880205	          0.00000000	          0.00000000	          0.00000000	          0.00000000	
          0.58400000	        117.08256876	        645.36361231	        -49.72362846	         -0.78916196	          0.00000000	          0.13388315	          0.00000000	          0.00000000	          0.00000000	          0.00000000	          0.00000000	          0.00000000	          0.00000000	          2.61885325	          0.00000000	          0.00000000	          0.00000000	          0.00000000	
          0.58800000	        124.18455177	        657.46042663	        -50.06283463	         -0.78840408	          0.00000000	          0.13398765	          0.00000000	          0.00000000	          0.00000000	          0.00000000	          0.00000000	          0.00000000	          0.00000000	          2.57153353	          0.00000000	          0.00000000	          0.00000000	          0.00000000	
          0.59200000	        132.24999660	        669.09858432	        -50.22273072	         -0.78789007	          0.00000000	          0.13405844	          0.00000000	          0.00000000	          0.00000000	          0.00000000	          0.00000000	          0.00000000	          0.00000000	          2.49867409	          0.00000000	          0.00000000	          0.00000000	          0.00000000	
          0.59600000	        141.07159095	        680.01927107	        -50.17278789	         -0.78755817	          0.00000000	          0.13410195	          0.00000000	          0.00000000	          0.00000000	          0.00000000	          0.00000000	          0.00000000	          0.00000000	          2.40752408	          0.00000000	          0.00000000	          0.00000000	          0.00000000	
          0.60000000	        150.37873325	        689.99817774	        -49.88451965	         -0.78736139	          0.00000000	          0.13411347	          0.00000000	          0.00000000	          0.00000000	          0.00000000	          0.00000000	          0.00000000	          0.00000000	          2.30868947	          0.00000000	          0.00000000	          0.00000000	          0.00000000	
          0.60400000	        159.89155955	        698.81865457	        -49.34547742	         -0.78725205	          0.00000000	          0.13409021	          0.00000000	          0.00000000	          0.00000000	          0.00000000	          0.00000000	          0.00000000	          0.00000000	          2.21355516	          0.00000000	          0.00000000	          0.00000000	          0.00000000	
          0.60800000	        169.35626158	        706.24851288	        -48.56718798	         -0.78716833	          0.00000000	          0.13404708	          0.00000000	          0.00000000	          0.00000000	          0.00000000	          0.00000000	          0.00000000	          0.00000000	          2.13205082	          0.00000000	          0.00000000	          0.00000000	          0.00000000	
          0.61200000	        178.54867334	        712.07179868	        -47.57874137	         -0.78706224	          0.00000000	          0.13400532	          0.00000000	          0.00000000	          0.00000000	          0.00000000	          0.00000000	          0.00000000	          0.00000000	          2.07136233	          0.00000000	          0.00000000	          0.00000000	          0.00000000	
          0.61600000	        187.26559105	        716.14852809	        -46.41704322	         -0.78690738	          0.00000000	          0.13397690	          0.00000000	          0.00000000	          0.00000000	          0.00000000	          0.00000000	          0.00000000	          0.00000000	          2.03560688	          0.00000000	          0.00000000	          0.00000000	          0.00000000	
          0.62000000	        195.33011977	        718.44010791	        -45.12424926	         -0.78669576	          0.00000000	          0.13396035	          0.00000000	          0.00000000	          0.00000000	          0.00000000	          0.00000000	          0.00000000	          0.00000000	          2.02605033	          0.00000000	          0.00000000	          0.00000000	          0.00000000	
          0.62400000	        202.61105023	        718.97847942	        -43.74562858	         -0.78641927	          0.00000000	          0.13394873	          0.00000000	          0.00000000	          0.00000000	          0.00000000	          0.00000000	          0.00000000	          0.00000000	          2.04141021	          0.00000000	          0.00000000	          0.00000000	          0.00000000	
          0.62800000	        209.03754348	        717.81033207	        -42.32336972	         -0.78606316	          0.00000000	          0.13393392	          0.00000000	          0.00000000	          0.00000000	          0.00000000	          0.00000000	          0.00000000	          0.00000000	          2.07802567	          0.00000000	          0.00000000	          0.00000000	          0.00000000	
